<svg id="svg" xmlns="http://www.w3.org/2000/svg" xmlns:xlink="http://www.w3.org/1999/xlink" width="400" height="400" viewBox="0, 0, 400,400">
    <g id="svgg">
        <path id="path0" d="M178.105 99.150 C 172.838 100.479,170.588 104.621,170.588 112.989 L 170.588 119.507 150.817 119.721 C 128.550 119.962,127.355 120.195,122.002 125.359 C 116.872 130.308,116.057 132.906,115.804 145.112 C 115.546 157.620,115.677 157.939,121.225 158.291 L 124.466 158.497 131.454 217.878 C 139.990 290.410,138.960 285.303,146.588 292.931 C 154.769 301.112,156.692 301.397,202.024 301.169 C 246.763 300.944,247.761 300.738,255.880 290.028 C 260.909 283.395,260.681 284.685,268.418 218.945 L 275.531 158.497 279.299 158.160 C 284.238 157.718,284.292 157.589,284.304 146.317 C 284.319 131.906,281.589 126.139,272.681 121.765 L 268.954 119.935 249.183 119.721 L 229.412 119.507 229.412 112.791 C 229.412 105.435,228.601 103.334,224.626 100.387 C 222.832 99.056,182.702 97.989,178.105 99.150 M219.666 109.059 C 220.625 110.245,220.915 111.646,220.915 115.105 L 220.915 119.608 200.000 119.608 L 179.085 119.608 179.085 115.178 C 179.085 107.092,178.517 107.288,201.529 107.420 L 218.417 107.516 219.666 109.059 M267.693 129.995 C 272.990 132.401,275.817 137.758,275.817 145.387 L 275.817 149.020 200.000 149.020 L 124.183 149.020 124.183 145.387 C 124.183 137.758,127.010 132.401,132.307 129.995 C 136.440 128.118,263.560 128.118,267.693 129.995 M266.274 160.294 C 266.103 161.462,263.183 186.242,259.784 215.359 C 251.734 284.325,252.565 279.832,246.759 285.794 C 240.219 292.510,237.006 292.951,196.608 292.691 L 164.379 292.484 160.073 290.443 C 153.672 287.410,148.976 281.944,147.508 275.817 C 147.292 274.918,144.172 249.036,140.574 218.301 C 136.976 187.565,133.893 161.462,133.724 160.294 L 133.416 158.170 200.000 158.170 L 266.584 158.170 266.274 160.294 M162.876 183.791 C 161.638 185.029,165.221 262.363,166.678 265.850 C 167.510 267.841,173.427 268.036,174.460 266.106 C 175.638 263.905,170.859 184.834,169.487 183.824 C 168.075 182.784,163.904 182.763,162.876 183.791 M196.507 184.202 C 194.896 185.981,194.844 264.685,196.452 266.293 C 197.993 267.834,203.033 267.674,203.899 266.056 C 205.127 263.761,204.803 186.237,203.558 184.459 C 202.248 182.590,198.102 182.439,196.507 184.202 M230.496 183.830 C 229.332 184.682,224.396 262.730,225.343 265.309 C 226.287 267.879,232.303 268.287,233.324 265.850 C 234.795 262.340,238.375 185.041,237.124 183.791 C 236.093 182.760,231.925 182.785,230.496 183.830 " stroke="none" fill="#000000" fill-rule="evenodd"></path>
    </g>
</svg>